<svg width="20" height="20" viewBox="0 0 20 20" fill="none" xmlns="http://www.w3.org/2000/svg">
<circle cx="10" cy="10" r="10" fill="#1E6DB4"/>
<g clip-path="url(#clip0_2241_188)">
<path fill-rule="evenodd" clip-rule="evenodd" d="M15.0764 5.11532C13.5475 4.9096 12.4656 4.82325 10.8858 4.78261C10.3754 4.76991 9.93092 4.75975 9.89536 4.76229C9.85979 4.76737 9.65407 4.77245 9.43819 4.77499C8.04132 4.79531 6.37272 4.92484 4.85395 5.12802C4.32569 5.19913 4.23679 5.23215 4.17838 5.37437C4.1479 5.44295 4.14282 6.21757 4.14282 10.0272C4.14282 14.3549 4.14536 14.6038 4.18854 14.6699C4.26473 14.7867 4.3333 14.8095 4.79046 14.8756C7.93974 15.3302 11.4624 15.3581 14.6472 14.9543C15.6733 14.8248 15.7266 14.8121 15.8231 14.68C15.8714 14.614 15.8765 14.5683 15.8841 14.073C15.8942 13.4304 15.8765 13.3517 15.7038 13.2679C15.6022 13.2197 15.5793 13.2171 15.1272 13.2451C14.4847 13.2857 12.1024 13.2832 11.4065 13.2451C9.67947 13.146 8.04387 12.9555 6.56828 12.6838C6.18986 12.6127 6.17462 12.6076 6.09335 12.5187C6.02478 12.4425 6.00954 12.4069 6.00954 12.3104C6.00954 12.2088 6.02224 12.1809 6.10605 12.0996C6.19948 12.0062 6.20253 12.0057 6.72422 11.9133L6.73337 11.9117C9.2782 11.4672 11.8256 11.2818 14.3018 11.3606C14.9037 11.3809 15.4549 11.3961 15.5285 11.3961C15.6834 11.3936 15.7774 11.3403 15.8434 11.2082C15.8841 11.1269 15.8892 10.9263 15.8892 8.31794C15.8892 6.26582 15.8815 5.48866 15.8612 5.41501C15.8054 5.23215 15.7266 5.20167 15.0764 5.11532Z" fill="white"/>
</g>
<defs>
<clipPath id="clip0_2241_188">
<rect width="13.1217" height="11.4286" fill="white" transform="translate(3.80951 4.7619)"/>
</clipPath>
</defs>
</svg>
